<?xml version="1.0" encoding="UTF-8" standalone="no"?>
<!DOCTYPE svg PUBLIC "-//W3C//DTD SVG 1.1//EN" "http://www.w3.org/Graphics/SVG/1.1/DTD/svg11.dtd">
<svg width="100%" height="100%" viewBox="0 0 1126 800" version="1.1" xmlns="http://www.w3.org/2000/svg" xmlns:xlink="http://www.w3.org/1999/xlink" xml:space="preserve" xmlns:serif="http://www.serif.com/" style="fill-rule:evenodd;clip-rule:evenodd;stroke-miterlimit:10;">
    <g transform="matrix(1,0,0,1,358.954,93.217)">
        <g id="Artboard1" transform="matrix(2.00146,0,0,240.8,40.6167,77169.4)">
            <rect x="-20.294" y="-320.471" width="959.302" height="2.492" style="fill:none;"/>
            <clipPath id="_clip1">
                <rect x="-20.294" y="-320.471" width="959.302" height="2.492"/>
            </clipPath>
                <g id="OBJECTS" transform="matrix(0.499637,0,0,0.00415282,253.608,-320.484)">
                    <g>
                        <g id="right">
                        </g>
                        <g id="left">
                            <g transform="matrix(1.24289,0.513368,-0.38176,0.924262,-688.113,-197.646)">
                                <path d="M-46.86,155.352C-39.625,138.479 -16.1,125.376 1.657,127.22C19.413,129.065 39.186,140.623 43.174,164.706C64.734,294.895 175.193,290.258 232.822,264.162C244.737,258.767 257.773,269.158 255.168,281.975C247.16,321.367 255.868,408.027 317.714,455.679C446.081,554.585 542.589,457.18 657.571,410.435C721.33,384.514 778.02,395.08 851.174,405.174" style="fill:none;fill-rule:nonzero;stroke:rgb(70,182,161);stroke-width:0.5px;"/>
                                <path d="M-53.107,158.475C-45.858,143.325 -23.439,132.201 -5.923,134.727C11.044,137.174 30.195,148.262 34.684,171.077C58.447,291.85 162.195,292.57 218.476,271.888C229.898,267.691 241.976,277.386 240.326,289.568C235.126,327.945 246.498,409.612 305.499,455.749C427.866,551.416 520.44,466.7 629.854,430.837C691.512,410.627 746.265,424.764 813.437,435.22" style="fill:none;fill-rule:nonzero;stroke:rgb(70,182,161);stroke-width:0.5px;"/>
                                <path d="M-59.354,161.597C-52.091,148.169 -30.788,139.005 -13.502,142.232C2.67,145.251 21.19,155.886 26.195,177.446C52.036,288.768 148.978,294.877 204.13,279.612C215.019,276.598 226.205,285.64 225.483,297.16C223.136,334.628 237.128,411.196 293.282,455.818C409.648,548.246 498.619,476.336 602.135,451.239C661.907,436.747 714.508,454.449 775.699,465.265" style="fill:none;fill-rule:nonzero;stroke:rgb(70,182,161);stroke-width:0.5px;"/>
                                <path d="M-65.6,164.72C-58.322,153.015 -38.143,145.786 -21.08,149.739C-5.707,153.301 12.167,163.501 17.707,183.818C45.477,285.658 135.52,297.122 189.785,287.339C200.099,285.48 210.471,293.924 210.642,304.754C211.222,341.416 227.759,412.781 281.067,455.888C391.433,545.077 477.169,486.216 574.417,471.641C632.543,462.929 682.751,484.134 737.961,495.31" style="fill:none;fill-rule:nonzero;stroke:rgb(70,182,161);stroke-width:0.5px;"/>
                                <path d="M-71.847,167.842C-64.555,157.86 -45.502,152.538 -28.659,157.244C-14.085,161.317 3.118,171.103 9.218,190.187C38.735,282.524 121.821,299.214 175.44,295.063C185.137,294.312 194.783,302.227 195.801,312.346C199.419,348.289 218.391,414.365 268.852,455.956C373.217,541.905 456.417,483.122 546.7,492.042C603.221,497.627 650.996,513.817 700.224,525.355" style="fill:none;fill-rule:nonzero;stroke:rgb(70,182,161);stroke-width:0.5px;"/>
                                <path d="M-78.094,170.965C-70.787,162.705 -52.86,159.259 -36.238,164.751C-22.459,169.303 -5.965,178.699 0.729,196.558C31.777,279.389 108.432,310.331 161.095,302.788C170.055,301.505 179.148,310.543 180.96,319.938C187.766,355.22 209.022,415.948 256.638,456.025C355.002,538.735 437.474,492.845 518.984,512.443C573.089,525.452 619.242,543.501 662.489,555.4" style="fill:none;fill-rule:nonzero;stroke:rgb(70,182,161);stroke-width:0.5px;"/>
                                <path d="M-84.341,174.087C-77.02,167.55 -60.21,165.946 -43.817,172.256C-30.827,177.256 -15.091,186.293 -7.76,202.927C24.566,276.277 93.923,302.518 146.749,310.512C155.13,311.78 163.568,318.858 166.118,327.53C176.299,362.159 199.653,417.532 244.422,456.094C336.786,535.565 414.679,518.842 491.265,532.845C545.74,542.805 587.485,573.186 624.75,585.445" style="fill:none;fill-rule:nonzero;stroke:rgb(70,182,161);stroke-width:0.5px;"/>
                                <path d="M-90.587,177.21C-83.252,172.396 -67.545,172.597 -51.395,179.762C-39.182,185.181 -24.271,193.898 -16.248,209.298C17.065,273.239 79.978,303.529 132.405,318.238C140.129,320.405 148.045,327.161 151.278,335.123C165.047,369.041 190.285,419.117 232.208,456.163C318.571,532.395 393.978,531.072 463.549,553.246C516.906,570.253 555.73,602.87 587.015,615.49" style="fill:none;fill-rule:nonzero;stroke:rgb(70,182,161);stroke-width:0.5px;"/>
                                <path d="M-96.834,180.332C-89.484,177.24 -74.859,179.207 -58.974,187.268C-47.523,193.079 -33.524,201.533 -24.737,215.668C9.25,270.337 66.275,304.057 118.059,325.963C125.159,328.966 132.566,335.433 136.436,342.716C154.012,375.79 180.916,420.701 219.992,456.233C300.355,529.226 372.948,543.914 435.831,573.649C487.804,598.225 523.974,632.555 549.277,645.536" style="fill:none;fill-rule:nonzero;stroke:rgb(70,182,161);stroke-width:0.5px;"/>
                                <path d="M-103.081,183.455C-95.717,182.086 -82.143,185.779 -66.553,194.774C-55.844,200.953 -42.864,209.234 -33.226,222.038C1.124,267.67 52.989,304.17 103.714,333.687C110.245,337.488 117.118,343.663 121.594,350.307C143.172,382.33 171.546,422.284 207.777,456.3C282.139,526.054 351.375,557.139 408.114,594.048C458.224,626.645 492.219,662.237 511.54,675.579" style="fill:none;fill-rule:nonzero;stroke:rgb(70,182,161);stroke-width:0.5px;"/>
                                <path d="M-109.328,186.577C-101.949,186.931 -89.387,192.309 -74.132,202.28C-64.142,208.809 -52.303,217.053 -41.715,228.408C-7.254,265.364 40.225,304.021 89.368,341.412C95.395,345.998 101.681,351.845 106.752,357.9C132.473,388.613 162.177,423.869 195.561,456.37C263.922,522.884 329.149,570.463 380.395,614.451C428.033,655.341 460.462,691.923 473.802,705.625" style="fill:none;fill-rule:nonzero;stroke:rgb(70,182,161);stroke-width:0.5px;"/>
                                <path d="M-115.574,189.7C-45.267,209.445 405.353,676.975 436.067,735.669" style="fill:none;fill-rule:nonzero;stroke:rgb(70,182,161);stroke-width:0.5px;"/>
                            </g>
                        </g>
                    </g>
                </g>
        </g>
    </g>
</svg>
